# AST/ASF file generated using VICON BodyLanguage
# -----------------------------------------------
:version 1.10
:name VICON
:units
  mass 1.0
  length 0.45
  angle deg
:documentation
   .ast/.asf automatically generated from VICON data using
   VICON BodyBuilder and BodyLanguage model FoxedUp or BRILLIANT.MOD
:root
   order TX TY TZ RX RY RZ
   axis XYZ
   position 0 0 0  
   orientation 0 0 0 
:bonedata
  begin
     id 1 
     name lhipjoint
     direction 0.521689 -0.742065 0.420928 
     length 2.47002 
     axis 0 0 0  XYZ
  end
  begin
     id 2 
     name lfemur
     direction 0.34202 -0.939693 0  
     length 7.24654  
     axis 0 0 20  XYZ
    dof rx ry rz
    limits (-160.0 20.0)
           (-70.0 70.0)
           (-60.0 70.0)
  end
  begin
     id 3 
     name ltibia
     direction 0.34202 -0.939693 0   
     length 8.04849   
     axis 0 0 20   XYZ
    dof rx
    limits (-10.0 170.0)
  end
  begin
     id 4 
     name lfoot
     direction 0.0745411 -0.2048 0.975961   
     length 1.72367   
     axis -90 7.62852e-016 20   XYZ
    dof rx rz
    limits (-45.0 90.0)
           (-70.0 20.0)
  end
  begin
     id 5 
     name ltoes
     direction 1.53556e-011 -4.21901e-011 1   
     length 0.87311   
     axis -90 7.62852e-016 20   XYZ
    dof rx
    limits (-90.0 20.0)
  end
  begin
     id 6 
     name rhipjoint
     direction -0.52849 -0.738415 0.418857   
     length 2.48223  
     axis 0 0 0  XYZ 
  end
  begin
     id 7 
     name rfemur
     direction -0.34202 -0.939693 0   
     length 7.15571   
     axis 0 0 -20   XYZ
    dof rx ry rz
    limits (-160.0 20.0)
           (-70.0 70.0)
           (-70.0 60.0)
  end
  begin
     id 8 
     name rtibia
     direction -0.34202 -0.939693 0   
     length 7.81659   
     axis 0 0 -20   XYZ
    dof rx
    limits (-10.0 170.0)
 end
 begin
     id 9 
     name rfoot
     direction -0.0917348 -0.252039 0.963359   
     length 1.84382  
     axis -90 -7.62852e-016 -20   XYZ
    dof rx rz
    limits (-45.0 90.0)
           (-20.0 70.0)
  end
  begin
     id 10 
     name rtoes
     direction -1.53551e-011 -4.21879e-011 1   
     length 0.927771   
     axis -90 -7.62852e-016 -20   XYZ
    dof rx
    limits (-90.0 20.0)
  end
  begin
     id 11 
     name lowerback
     direction 0.00583058 0.999822 0.0179296   
     length 2.1429   
     axis 0 0 0   XYZ
    dof rx ry rz
    limits (-20.0 45.0)
           (-30.0 30.0)
           (-30.0 30.0)
  end
  begin
     id 12 
     name upperback
     direction -0.0137999 0.999752 -0.0175071   
     length 2.14252   
     axis 0 0 0   XYZ
    dof rx ry rz
    limits (-20.0 45.0)
           (-30.0 30.0)
           (-30.0 30.0)
  end
  begin
     id 13 
     name thorax
     direction -0.0158036 0.99955 -0.0254909   
     length 2.1383   
     axis 0 0 0   XYZ
    dof rx ry rz
    limits (-20.0 45.0)
           (-30.0 30.0)
           (-30.0 30.0)
  end
  begin
     id 14 
     name lowerneck
     direction -0.0101179 0.999403 -0.0330262   
     length 1.65808   
     axis 0 0 0   XYZ
    dof rx ry rz
    limits (-20.0 45.0)
           (-30.0 30.0)
           (-30.0 30.0)
  end
  begin
     id 15 
     name upperneck
     direction 0.0497734 0.995978 -0.074501   
     length 1.5897   
     axis 0 0 0   XYZ
    dof rx ry rz
    limits (-20.0 45.0)
           (-30.0 30.0)
           (-30.0 30.0)
  end
  begin
     id 16
     name head
     direction 0.0189524 0.999519 -0.0245438  
     length 1.74024  
     axis 0 0 0   XYZ
    dof rx ry rz
    limits (-20.0 45.0)
           (-30.0 30.0)
           (-30.0 30.0)
  end
  begin
     id 17 
     name lclavicle
     direction 0.945604 0.324422 0.0241537  
     length 3.59089  
     axis 0 0 0   XYZ
    dof ry rz
    limits (-20.0 10.0)
           (0.0 20.0)
  end
  begin
     id 18 
     name lhumerus
     direction 1 -4.48964e-011 -2.63524e-027   
     length 5.2391   
     axis 180 -30 -90   XYZ
    dof rx ry rz
    limits (-60.0 90.0)
           (-90.0 90.0)
           (-90.0 90.0)
  end
  begin
     id 19
     name lradius
     direction 1 -4.48969e-011 3.86978e-028   
     length 3.31467   
     axis 180 -30 -90   XYZ
    dof rx
    limits (-10.0 170.0)
  end
  begin
     id 20
     name lwrist
     direction 1 -4.48963e-011 7.20928e-028   
     length 1.65734   
     axis -5.52449e-016 90 90   XYZ
    dof ry
    limits (-180.0 0.0)
 end
  begin
     id 21 
     name lhand
     direction 1 -4.48964e-011 1.44186e-027   
     length 0.9659   
     axis -9.20027e-016 90 90   XYZ
    dof rx rz
    limits (-90.0 90.0)
           (-45.0 45.0)
  end
  begin
     id 22 
     name lfingers
     direction 1 -4.48965e-011 2.88371e-027   
     length 0.778733   
     axis -1.84005e-015 90 90   XYZ
    dof rx
    limits (0.0 90.0)
  end
  begin
     id 23
     name lthumb
     direction 0.707107 -6.34931e-011 0.707107   
     length 1.11811   
     axis -90 45 2.85299e-015   XYZ
    dof rx rz
    limits (-45.0 45.0)
           (-45.0 45.0)
  end
  begin
     id 24 
     name rclavicle
     direction -0.923762 0.370785 0.0958234   
     length 3.54196  
     axis 0 0 0   XYZ 
    dof ry rz
    limits (-10.0 20.0)
           (-20.0 0.0)
  end
  begin
     id 25 
     name rhumerus
     direction -1 -4.48966e-011 1.18702e-017  
     length 5.30252   
     axis 180 30 90   XYZ
    dof rx ry rz
    limits (-90.0 60.0)
           (-90.0 90.0)
           (-90.0 90.0)
  end
  begin
     id 26 
     name rradius
     direction -1 -4.48966e-011 4.46736e-027   
     length 3.67875   
     axis 180 30 90   XYZ
    dof rx
    limits (-10.0 170.0)
  end
  begin
     id 27 
     name rwrist
     direction -1 -4.48966e-011 7.20928e-028   
     length 1.83937   
     axis -5.52449e-016 -90 -90   XYZ
    dof ry
    limits (-180.0 0.0)
  end
  begin
     id 28
     name rhand
     direction -1 -4.48973e-011 1.44186e-027   
     length 0.594811   
     axis -9.20027e-016 -90 -90   XYZ
    dof rx rz
    limits (-90.0 90.0)
           (-45.0 45.0)
  end
  begin
     id 29
     name rfingers
     direction -1 -4.48963e-011 2.88371e-027   
     length 0.479552   
     axis -1.84005e-015 -90 -90   XYZ
    dof rx
    limits (0.0 90.0)
  end
  begin
     id 30
     name rthumb
     direction -0.707107 -6.34932e-011 0.707107   
     length 0.688544   
     axis -90 -45 -2.85299e-015   XYZ
    dof rx rz
    limits (-45.0 45.0)
           (-45.0 45.0)
  end
:hierarchy
  begin
    root lhipjoint rhipjoint lowerback
    lhipjoint lfemur
    lfemur ltibia
    ltibia lfoot
    lfoot ltoes
    rhipjoint rfemur
    rfemur rtibia
    rtibia rfoot
    rfoot rtoes
    lowerback upperback
    upperback thorax
    thorax lowerneck lclavicle rclavicle
    lowerneck upperneck
    upperneck head
    lclavicle lhumerus
    lhumerus lradius
    lradius lwrist
    lwrist lhand lthumb
    lhand lfingers
    rclavicle rhumerus
    rhumerus rradius
    rradius rwrist
    rwrist rhand rthumb
    rhand rfingers
  end

#!OML:ASF E:\acrobat2\Project_11_07_03\Capture day 1\Session 1\Acrobat.ASF
:FULLY-SPECIFIED
:DEGREES
666
root 6.20436 18.3909 -17.1142 -344.726 3.80757 2.1628
lowerback -1.76875 0.64641 5.5673
upperback 0.907936 0.737369 -1.04763
thorax 2.01505 0.449641 -4.18136
lowerneck 1.03065 -1.72323 0.54086
upperneck 3.88768 -2.22692 -2.19378
head 0.987003 -1.12643 -0.773733
rclavicle 5.06901e-015 -1.11319e-014
rhumerus -33.4402 1.14799 -81.6695
rradius 24.8459
rwrist 5.99441
rhand -5.77973 -401.472
rfingers 7.12502
rthumb 20.0441 -430.458
lclavicle 5.06901e-015 -1.11319e-014
lhumerus -29.2293 -10.4681 85.1977
lradius 23.6428
lwrist 6.52111
lhand -5.57276 -12.3099
lfingers 7.12502
lthumb 20.243 376.655
rfemur -7.55074 0.621752 21.322
rtibia 4.98498
rfoot 159.469 -195.444
rtoes 26.9815
lfemur -10.3563 -0.696536 -19.8729
ltibia 8.51149
lfoot -9.28732 -4.25914
ltoes 48.003
667
root 6.20689 18.3914 -17.1054 -344.75 3.92281 2.05388
lowerback -2.13241 0.653386 5.50636
upperback 0.849369 0.728202 -1.03429
thorax 2.15698 0.446899 -4.13056
lowerneck 0.990653 -1.7052 0.658526
upperneck 3.82752 -2.20191 -2.2691
head 0.973684 -1.11316 -0.816475
rclavicle -2.44505e-014 4.37326e-015
rhumerus -33.6038 0.928143 -81.6032
rradius 24.9195
rwrist 5.6642
rhand -5.87882 -401.384
rfingers 7.12502
rthumb 19.9488 -430.38
lclavicle -2.44505e-014 4.37326e-015
lhumerus -29.2293 -10.6463 85.2736
lradius 23.6938
lwrist 6.73053
lhand -5.47234 -12.5069
lfingers 7.12502
lthumb 20.3395 376.448
rfemur -7.44866 0.625709 21.5203
rtibia 4.87784
rfoot 159.574 -195.587
rtoes 26.5353
lfemur -10.3013 -0.339131 -19.76
ltibia 8.50609
lfoot -9.03014 -4.35137
ltoes 47.5394
668
root 6.21099 18.3926 -17.095 -344.799 4.01394 2.06935
lowerback -2.3793 0.6646 5.33693
upperback 0.802642 0.73593 -1.06041
thorax 2.24625 0.450079 -4.05977
lowerneck 0.866686 -1.68084 0.420727
upperneck 3.92553 -2.18165 -1.81033
head 1.03151 -1.10237 -0.637582
rclavicle 1.36167e-014 7.95139e-016
rhumerus -33.81 0.794338 -81.5645
rradius 25.1081
rwrist 5.41402
rhand -5.93866 -401.112
rfingers 7.12502
rthumb 19.8913 -430.114
lclavicle 1.36167e-014 7.95139e-016
lhumerus -29.0315 -10.9515 85.3922
lradius 23.6035
lwrist 7.02395
lhand -5.29225 -12.3899
lfingers 7.12502
lthumb 20.5126 376.546
rfemur -7.28446 0.773354 21.5176
rtibia 4.73453
rfoot 159.414 -195.75
rtoes 26.3789
lfemur -10.1719 -0.215451 -19.7982
ltibia 8.43442
lfoot -8.91636 -4.4813
ltoes 47.7366
669
root 6.21807 18.3941 -17.0817 -344.887 4.12112 2.11188
lowerback -2.50798 0.682529 5.21754
upperback 0.663679 0.76101 -1.12862
thorax 2.17687 0.45646 -4.06158
lowerneck 0.92872 -1.75947 0.230537
upperneck 3.93526 -2.29666 -1.4662
head 1.02798 -1.15826 -0.500312
rclavicle -2.48481e-015 -7.95139e-015
rhumerus -34.3672 0.734687 -81.6001
rradius 25.5189
rwrist 5.09978
rhand -5.83477 -400.985
rfingers 7.12502
rthumb 19.9912 -429.977
lclavicle -2.48481e-015 -7.95139e-015
lhumerus -29.0697 -11.2364 85.5031
lradius 23.5977
lwrist 7.15473
lhand -5.10158 -12.0119
lfingers 7.12502
lthumb 20.6958 376.905
rfemur -7.03953 0.895531 21.4398
rtibia 4.52549
rfoot 159.239 -195.916
rtoes 26.2795
lfemur -9.94169 -0.261845 -19.879
ltibia 8.29226
lfoot -8.89846 -4.46027
ltoes 47.8153
670
root 6.22193 18.3951 -17.0692 -344.935 4.19921 2.05492
lowerback -2.75275 0.699194 5.15342
upperback 0.54656 0.775047 -1.14964
thorax 2.19434 0.460679 -4.04492
lowerneck 1.11337 -1.82916 0.198596
upperneck 3.68701 -2.39387 -1.42711
head 0.919751 -1.20532 -0.478933
rclavicle 1.46107e-014 -1.39149e-014
rhumerus -34.8196 0.655939 -81.6202
rradius 25.889
rwrist 4.90487
rhand -5.60801 -401.165
rfingers 7.12502
rthumb 20.2091 -430.134
lclavicle 1.46107e-014 -1.39149e-014
lhumerus -29.3018 -11.379 85.5834
lradius 23.9149
lwrist 7.13549
lhand -4.87343 -11.6115
lfingers 7.12502
lthumb 20.915 377.281
rfemur -6.8519 1.14029 21.5008
rtibia 4.29915
rfoot 159.535 -196.369
rtoes 24.4037
lfemur -9.78487 -0.361839 -19.8095
ltibia 8.18585
lfoot -8.99339 -4.32005
ltoes 47.5948
671
root 6.22459 18.3969 -17.0603 -344.954 4.23828 1.94172
lowerback -3.11033 0.714192 5.04959
upperback 0.521263 0.779295 -1.09586
thorax 2.36738 0.465148 -3.92715
lowerneck 1.09486 -1.86642 0.131102
upperneck 3.55276 -2.44587 -1.40715
head 0.881817 -1.2316 -0.460901
rclavicle 2.78299e-015 -1.98785e-015
rhumerus -34.8588 0.573525 -81.5347
rradius 25.8855
rwrist 5.00796
rhand -5.45691 -401.046
rfingers 7.12502
rthumb 20.3544 -429.999
lclavicle 2.78299e-015 -1.98785e-015
lhumerus -29.2421 -11.3104 85.6773
lradius 24.0706
lwrist 6.98382
lhand -4.71086 -11.5032
lfingers 7.12502
lthumb 21.0712 377.372
rfemur -6.72571 1.47487 21.6332
rtibia 4.14741
rfoot 160.465 -196.973
rtoes 19.6636
lfemur -9.71072 -0.429415 -19.6583
ltibia 8.10442
lfoot -9.03352 -4.23331
ltoes 47.7764
672
root 6.22983 18.3995 -17.0509 -345.018 4.30544 1.90094
lowerback -3.42201 0.735122 4.90682
upperback 0.510604 0.796755 -1.07848
thorax 2.53105 0.475802 -3.8248
lowerneck 1.00092 -1.88505 0.0642875
upperneck 3.60704 -2.47226 -1.32604
head 0.915783 -1.24537 -0.426957
rclavicle 6.65929e-015 2.78299e-015
rhumerus -34.8057 0.480934 -81.4558
rradius 25.6579
rwrist 5.12549
rhand -5.5863 -400.228
rfingers 7.12502
rthumb 20.23 -429.194
lclavicle 6.65929e-015 2.78299e-015
lhumerus -28.9706 -11.1415 85.7255
lradius 23.9448
lwrist 6.71021
lhand -4.5865 -11.5686
lfingers 7.12502
lthumb 21.1907 377.293
rfemur -6.5281 1.63742 21.6785
rtibia 4.00244
rfoot 160.907 -197.196
rtoes 18.4146
lfemur -9.56692 -0.298444 -19.6188
ltibia 7.98816
lfoot -8.85333 -4.1929
ltoes 47.8331
673
root 6.23682 18.4023 -17.0409 -345.106 4.47477 1.95485
lowerback -3.62755 0.733015 4.80219
upperback 0.476715 0.790783 -1.15379
thorax 2.61053 0.473249 -3.8427
lowerneck 0.926448 -1.84582 0.0116209
upperneck 3.59792 -2.42563 -1.12508
head 0.928602 -1.221 -0.35761
rclavicle 4.47266e-015 -1.07344e-014
rhumerus -34.9475 0.388549 -81.5019
rradius 25.6907
rwrist 5.06142
rhand -5.73473 -399.674
rfingers 7.12502
rthumb 20.0873 -428.656
lclavicle 4.47266e-015 -1.07344e-014
lhumerus -28.7132 -11.1301 85.6966
lradius 23.8054
lwrist 6.51685
lhand -4.55955 -11.7573
lfingers 7.12502
lthumb 21.2166 377.102
rfemur -6.27406 1.59544 21.6238
rtibia 3.82586
rfoot 160.113 -197.068
rtoes 23.1366
lfemur -9.39141 -0.152374 -19.6959
ltibia 7.88643
lfoot -8.62512 -4.21996
ltoes 47.6167
674
root 6.24399 18.4048 -17.0337 -345.178 4.64728 1.9878
lowerback -3.76949 0.720107 4.74777
upperback 0.409317 0.772751 -1.24858
thorax 2.61939 0.463053 -3.91072
lowerneck 0.805648 -1.81336 -0.0199495
upperneck 3.57039 -2.38871 -0.904633
head 0.943387 -1.20102 -0.286249
rclavicle 2.5842e-015 1.11319e-014
rhumerus -35.2862 0.394611 -81.6571
rradius 26.0317
rwrist 4.87076
rhand -5.929 -399.631
rfingers 7.12502
rthumb 19.9006 -428.632
lclavicle 2.5842e-015 1.11319e-014
lhumerus -28.5122 -11.1805 85.6539
lradius 23.6951
lwrist 6.42977
lhand -4.66733 -11.9362
lfingers 7.12502
lthumb 21.113 376.934
rfemur -6.0613 1.60281 21.5907
rtibia 3.6859
rfoot 159.44 -197.046
rtoes 25.8151
lfemur -9.22179 -0.054882 -19.7416
ltibia 7.75931
lfoot -8.43565 -4.20475
ltoes 47.2967
675
root 6.25597 18.4086 -17.0259 -345.338 4.7162 1.95292
lowerback -3.84811 0.725299 4.74901
upperback 0.342632 0.778633 -1.31381
thorax 2.59623 0.464544 -3.97853
lowerneck 0.76924 -1.80964 0.0527911
upperneck 3.56734 -2.38456 -0.882886
head 0.947998 -1.19793 -0.29191
rclavicle 3.47873e-016 2.78299e-015
rhumerus -35.6357 0.633805 -81.8879
rradius 26.4037
rwrist 4.51092
rhand -6.18377 -399.787
rfingers 7.12502
rthumb 19.6557 -428.813
lclavicle 3.47873e-016 2.78299e-015
lhumerus -28.4318 -11.2853 85.6571
lradius 23.7138
lwrist 6.45296
lhand -4.67917 -11.7229
lfingers 7.12502
lthumb 21.1016 377.149
rfemur -5.79715 1.57989 21.5744
rtibia 3.62165
rfoot 159.407 -197.054
rtoes 25.6908
lfemur -8.85808 -0.0835865 -19.7444
ltibia 7.46799
lfoot -8.39166 -3.98689
ltoes 47.1487
676
root 6.27214 18.4145 -17.0176 -345.563 4.82938 1.86825
lowerback -3.88645 0.726276 4.78969
upperback 0.335653 0.776246 -1.31217
thorax 2.61092 0.464149 -3.99972
lowerneck 0.59342 -1.85129 0.0376886
upperneck 3.6274 -2.43883 -0.904894
head 0.99588 -1.22601 -0.299053
rclavicle 3.77691e-015 -2.08724e-014
rhumerus -35.8301 0.90494 -82.0239
rradius 26.6987
rwrist 4.19667
rhand -6.32245 -400.156
rfingers 7.12502
rthumb 19.5224 -429.196
lclavicle 3.77691e-015 -2.08724e-014
lhumerus -28.1552 -11.3078 85.705
lradius 23.6608
lwrist 6.42367
lhand -4.5994 -11.6378
lfingers 7.12502
lthumb 21.1783 377.225
rfemur -5.47532 1.48127 21.5863
rtibia 3.59195
rfoot 159.405 -197.047
rtoes 25.5521
lfemur -8.43442 -0.419509 -19.7002
ltibia 7.17229
lfoot -8.54952 -3.73126
ltoes 47.5629
